<svg width="22" height="22" viewBox="0 0 22 22" fill="none" xmlns="http://www.w3.org/2000/svg">
<path d="M11.4591 9.95294V21.4609H18.907C19.8404 21.4609 20.6013 20.7011 20.6013 19.7666V9.95294H11.4591Z" fill="url(#paint0_linear_297_16184)"/>
<path d="M10.5423 9.95294H1.39925V19.7666C1.39925 20.7011 2.15907 21.4609 3.09359 21.4609H10.5423V9.95294Z" fill="url(#paint1_linear_297_16184)"/>
<path d="M21.1657 4.51824H17.777C18.132 4.04608 18.3418 3.45946 18.3418 2.8239C18.3418 1.26774 17.0755 0 15.5179 0C13.947 0 12.6307 1.2444 11.9865 1.98539C11.5945 2.43458 11.2583 2.91577 11.0004 3.38115C10.741 2.91577 10.4047 2.43533 10.0143 1.98539C9.36854 1.24553 8.05148 0 6.48214 0C4.92523 0 3.65824 1.26774 3.65824 2.8239C3.65824 3.45946 3.86872 4.04608 4.22377 4.51824H0.834342C0.52183 4.51824 0.269562 4.77277 0.269562 5.08302V8.4717C0.269562 8.78421 0.52183 9.03648 0.834342 9.03648H21.1657C21.4767 9.03648 21.7304 8.78421 21.7304 8.4717V5.08302C21.7304 4.77277 21.4767 4.51824 21.1657 4.51824ZM6.48214 4.51824C5.54762 4.51824 4.7878 3.75842 4.7878 2.8239C4.7878 1.89013 5.54762 1.12956 6.48214 1.12956C7.30145 1.12956 8.27852 1.71204 9.16259 2.72676C9.7059 3.35253 10.1024 4.01973 10.2974 4.51824H6.48214ZM15.5179 4.51824H11.7026C11.8984 4.01973 12.293 3.35253 12.8382 2.72676C13.72 1.71204 14.6974 1.12956 15.5179 1.12956C16.4513 1.12956 17.2122 1.89013 17.2122 2.8239C17.2122 3.75842 16.4513 4.51824 15.5179 4.51824Z" fill="url(#paint2_linear_297_16184)"/>
<defs>
<linearGradient id="paint0_linear_297_16184" x1="20.6013" y1="9.95294" x2="9.54856" y2="19.1699" gradientUnits="userSpaceOnUse">
<stop stop-color="#F21235"/>
<stop offset="1" stop-color="#910712"/>
</linearGradient>
<linearGradient id="paint1_linear_297_16184" x1="10.5423" y1="9.95294" x2="-0.510653" y2="19.1708" gradientUnits="userSpaceOnUse">
<stop stop-color="#F21235"/>
<stop offset="1" stop-color="#910712"/>
</linearGradient>
<linearGradient id="paint2_linear_297_16184" x1="21.7304" y1="-2.43815e-07" x2="15.6334" y2="15.1995" gradientUnits="userSpaceOnUse">
<stop stop-color="#F21235"/>
<stop offset="1" stop-color="#910712"/>
</linearGradient>
</defs>
</svg>
