<svg width="23" height="20" viewBox="0 0 23 20" fill="none" xmlns="http://www.w3.org/2000/svg">
<path fill-rule="evenodd" clip-rule="evenodd" d="M17.8454 5.97978H22.4995C22.4995 2.2051 20.2604 0 16.4667 0H6.53261C2.73887 0 0.499786 2.2051 0.499786 5.93163V14.0684C0.499786 17.7949 2.73887 20 6.53261 20H16.4667C20.2604 20 22.4995 17.7949 22.4995 14.0684V13.7217H17.8454C15.6853 13.7217 13.9343 11.9972 13.9343 9.87C13.9343 7.74276 15.6853 6.0183 17.8454 6.0183V5.97978ZM17.8464 7.63574H21.6792C22.1328 7.63574 22.5005 7.99788 22.5005 8.4446V11.2563C22.4953 11.7009 22.1306 12.06 21.6792 12.0652H17.9344C16.8409 12.0797 15.8847 11.3424 15.6366 10.2934C15.5124 9.64228 15.6868 8.97036 16.113 8.45775C16.5392 7.94514 17.1737 7.64426 17.8464 7.63574ZM18.0116 10.5918H18.3733C18.8377 10.5918 19.2142 10.2211 19.2142 9.76372C19.2142 9.30636 18.8377 8.9356 18.3733 8.9356H18.0116C17.7895 8.93303 17.5755 9.01813 17.4176 9.1719C17.2596 9.32568 17.1707 9.53534 17.1707 9.75409C17.1707 10.213 17.5456 10.5866 18.0116 10.5918ZM5.71176 5.98045H11.9206C12.385 5.98045 12.7615 5.60969 12.7615 5.15234C12.7615 4.69498 12.385 4.32422 11.9206 4.32422H5.71176C5.25115 4.32419 4.87624 4.68912 4.87088 5.14271C4.87085 5.60165 5.24578 5.97518 5.71176 5.98045Z" fill="url(#paint0_linear_297_16161)"/>
<defs>
<linearGradient id="paint0_linear_297_16161" x1="22.5005" y1="-5.39624e-07" x2="3.17411" y2="22.316" gradientUnits="userSpaceOnUse">
<stop stop-color="#F21235"/>
<stop offset="1" stop-color="#910712"/>
</linearGradient>
</defs>
</svg>
