<svg width="20" height="20" viewBox="0 0 20 20" fill="none" xmlns="http://www.w3.org/2000/svg">
<path d="M10 17.5C14.1421 17.5 17.5 14.1421 17.5 10C17.5 5.85786 14.1421 2.5 10 2.5C5.85786 2.5 2.5 5.85786 2.5 10C2.5 14.1421 5.85786 17.5 10 17.5Z" stroke="#FDFDFD" stroke-width="1.2" stroke-linecap="round" stroke-linejoin="round"/>
<path d="M16.732 13.3106L12.4909 10.7021C12.4166 10.6564 12.3335 10.6267 12.247 10.6151L10.4643 10.3747C10.3304 10.3567 10.1943 10.3825 10.0763 10.4483C9.95835 10.5141 9.86488 10.6163 9.80989 10.7397L8.73967 13.1412C8.6899 13.2528 8.67398 13.3767 8.69388 13.4973C8.71378 13.6179 8.76863 13.7301 8.85163 13.8199L10.3204 15.4085C10.387 15.4805 10.4357 15.5672 10.4625 15.6615C10.4894 15.7559 10.4937 15.8552 10.4751 15.9515L10.1759 17.4981" stroke="#FDFDFD" stroke-width="1.2" stroke-linecap="round" stroke-linejoin="round"/>
<path d="M5.0743 4.34424L4.37553 5.99656C4.31323 6.14389 4.30978 6.3095 4.36591 6.45929L5.26363 8.85524C5.30039 8.95336 5.36123 9.04065 5.44055 9.10911C5.51987 9.17757 5.61513 9.22498 5.71756 9.247L7.39178 9.60683C7.48468 9.6268 7.5718 9.66769 7.64652 9.72638C7.72125 9.78508 7.7816 9.86004 7.823 9.94557L8.12032 10.5598C8.17148 10.6655 8.25139 10.7546 8.35089 10.817C8.45039 10.8794 8.56545 10.9125 8.68288 10.9125H9.7323" stroke="#FDFDFD" stroke-width="1.2" stroke-linecap="round" stroke-linejoin="round"/>
<path d="M11.9111 2.74609L12.6403 4.05222C12.7092 4.17569 12.7342 4.31889 12.7113 4.45843C12.6883 4.59796 12.6187 4.72558 12.5138 4.82043L10.4114 6.7218C10.3757 6.75407 10.3364 6.78211 10.2943 6.80537L9.33789 7.33352C9.24539 7.38461 9.14143 7.41141 9.03576 7.41141H7.36815C7.24517 7.41141 7.12493 7.44769 7.02247 7.5157C6.92002 7.58372 6.8399 7.68045 6.79216 7.79378L6.1416 9.33818" stroke="#FDFDFD" stroke-width="1.2" stroke-linecap="round" stroke-linejoin="round"/>
</svg>
