<svg width="23" height="22" viewBox="0 0 23 22" fill="none" xmlns="http://www.w3.org/2000/svg">
<g id="Group 162733">
<g id="Group">
<g id="Group_2">
<path id="Vector" d="M11.959 10.453V21.961H19.4069C20.3403 21.961 21.1013 21.2011 21.1013 20.2666V10.453H11.959Z" fill="#7A7A7A"/>
<path id="Vector_2" d="M11.0424 10.453H1.89941V20.2666C1.89941 21.2011 2.65923 21.961 3.59375 21.961H11.0424V10.453V10.453Z" fill="#7A7A7A"/>
<path id="Vector_3" d="M21.6656 5.01824H18.277C18.632 4.54608 18.8417 3.95946 18.8417 3.3239C18.8417 1.76774 17.5755 0.5 16.0178 0.5C14.447 0.5 13.1307 1.7444 12.4865 2.48539C12.0945 2.93458 11.7583 3.41577 11.5003 3.88115C11.2409 3.41577 10.9047 2.93533 10.5142 2.48539C9.86851 1.74553 8.55144 0.5 6.98211 0.5C5.4252 0.5 4.15821 1.76774 4.15821 3.3239C4.15821 3.95946 4.36868 4.54608 4.72374 5.01824H1.33431C1.0218 5.01824 0.769531 5.27277 0.769531 5.58302V8.9717C0.769531 9.28421 1.0218 9.53648 1.33431 9.53648H21.6656C21.9766 9.53648 22.2304 9.28421 22.2304 8.9717V5.58302C22.2304 5.27277 21.9766 5.01824 21.6656 5.01824ZM6.98211 5.01824C6.04759 5.01824 5.28777 4.25842 5.28777 3.3239C5.28777 2.39013 6.04759 1.62956 6.98211 1.62956C7.80142 1.62956 8.77849 2.21204 9.66255 3.22676C10.2059 3.85253 10.6023 4.51973 10.7974 5.01824H6.98211ZM16.0178 5.01824H12.2026C12.3983 4.51973 12.7929 3.85253 13.3381 3.22676C14.22 2.21204 15.1974 1.62956 16.0178 1.62956C16.9512 1.62956 17.7122 2.39013 17.7122 3.3239C17.7122 4.25842 16.9512 5.01824 16.0178 5.01824Z" fill="#7A7A7A"/>
</g>
</g>
</g>
</svg>
