<svg width="21" height="19" viewBox="0 0 21 19" fill="none" xmlns="http://www.w3.org/2000/svg">
<path d="M20.244 17.8737C18.8446 15.4634 16.6034 13.6555 13.9515 12.7978C15.222 12.0419 16.2091 10.8898 16.7614 9.51853C17.3136 8.14724 17.4004 6.63257 17.0084 5.20717C16.6164 3.78178 15.7673 2.52448 14.5915 1.6284C13.4157 0.732321 11.9783 0.247009 10.5 0.247009C9.02168 0.247009 7.58425 0.732321 6.40847 1.6284C5.2327 2.52448 4.38361 3.78178 3.99161 5.20717C3.59962 6.63257 3.68641 8.14724 4.23865 9.51853C4.79088 10.8898 5.77802 12.0419 7.04845 12.7978C4.39665 13.6555 2.15554 15.4633 0.756081 17.8735C0.690116 17.9875 0.655337 18.1169 0.655243 18.2486C0.655149 18.3803 0.689743 18.5097 0.755545 18.6238C0.821346 18.7379 0.916035 18.8327 1.03009 18.8985C1.14414 18.9644 1.27352 18.9991 1.40524 18.9991L19.5949 18.9993C19.7266 18.9993 19.856 18.9646 19.9701 18.8987C20.0841 18.8329 20.1788 18.7381 20.2446 18.624C20.3104 18.5099 20.345 18.3805 20.3449 18.2488C20.3448 18.1171 20.31 17.9877 20.244 17.8737L20.244 17.8737Z" fill="#7A7A7A"/>
</svg>
