<svg width="23" height="20" viewBox="0 0 23 20" fill="none" xmlns="http://www.w3.org/2000/svg">
<path fill-rule="evenodd" clip-rule="evenodd" d="M17.8452 5.97978H22.4994C22.4994 2.2051 20.2603 0 16.4665 0H6.53244C2.7387 0 0.499619 2.2051 0.499619 5.93163V14.0684C0.499619 17.7949 2.7387 20 6.53244 20H16.4665C20.2603 20 22.4994 17.7949 22.4994 14.0684V13.7217H17.8452C15.6852 13.7217 13.9341 11.9972 13.9341 9.87C13.9341 7.74276 15.6852 6.0183 17.8452 6.0183V5.97978ZM17.8462 7.63574H21.6791C22.1327 7.63574 22.5004 7.99788 22.5004 8.4446V11.2563C22.4951 11.7009 22.1305 12.06 21.6791 12.0652H17.9342C16.8407 12.0797 15.8845 11.3424 15.6365 10.2934C15.5122 9.64228 15.6866 8.97036 16.1128 8.45775C16.539 7.94514 17.1735 7.64426 17.8462 7.63574ZM18.0114 10.5918H18.3732C18.8376 10.5918 19.214 10.2211 19.214 9.76372C19.214 9.30636 18.8376 8.9356 18.3732 8.9356H18.0114C17.7893 8.93303 17.5754 9.01813 17.4174 9.1719C17.2594 9.32568 17.1705 9.53534 17.1705 9.75409C17.1705 10.213 17.5454 10.5866 18.0114 10.5918ZM5.71159 5.98045H11.9204C12.3848 5.98045 12.7613 5.60969 12.7613 5.15234C12.7613 4.69498 12.3848 4.32422 11.9204 4.32422H5.71159C5.25098 4.32419 4.87607 4.68912 4.87071 5.14271C4.87068 5.60165 5.24561 5.97518 5.71159 5.98045Z" fill="#7A7A7A"/>
</svg>
